<svg width="1440" height="342" viewBox="0 0 1440 342" fill="none" xmlns="http://www.w3.org/2000/svg">
<path d="M1478 161.475V260.432C1478.01 265.279 1477.32 270.116 1475.93 274.879C1475.43 277.052 1474.64 279.162 1473.85 281.271C1472.97 283.445 1471.88 285.618 1470.79 287.728C1470.1 288.878 1469.51 290.029 1468.72 291.116C1468.43 291.691 1468.03 292.202 1467.64 292.778C1466.75 294.184 1465.76 295.527 1464.68 296.869C1464.68 296.933 1464.68 296.997 1464.58 296.997C1463.98 297.764 1463.39 298.531 1462.8 299.234C1461.62 300.641 1460.33 302.047 1459.05 303.389C1457.47 305.051 1455.89 306.586 1454.12 308.12C1453.12 309.078 1452.03 309.996 1450.86 310.869C1449.87 311.7 1448.79 312.531 1447.8 313.362C1446.73 314.217 1445.57 315.028 1444.34 315.791C1443.61 316.376 1442.82 316.931 1441.98 317.453C1440.4 318.476 1438.82 319.499 1437.14 320.458C1436.56 320.853 1435.93 321.216 1435.26 321.544C1434.18 322.183 1432.99 322.823 1431.81 323.462C1431.22 323.781 1430.53 324.165 1429.84 324.485C1429.34 324.74 1428.85 324.996 1428.26 325.316H1428.16C1426.01 326.417 1423.77 327.441 1421.45 328.384C1421.45 328.393 1421.45 328.401 1421.44 328.409C1421.44 328.417 1421.43 328.424 1421.42 328.43C1421.41 328.436 1421.4 328.441 1421.39 328.444C1421.37 328.447 1421.36 328.448 1421.35 328.448C1421.25 328.448 1421.25 328.512 1421.15 328.576C1419.77 329.215 1418.29 329.79 1416.81 330.366C1416.02 330.686 1415.23 330.941 1414.44 331.197C1414.27 331.304 1414.07 331.39 1413.85 331.453C1412.96 331.772 1412.17 332.092 1411.28 332.348C1409.01 333.115 1406.74 333.882 1404.37 334.585C1401.64 335.423 1398.84 336.17 1395.98 336.822C1395.94 336.861 1395.88 336.893 1395.81 336.915C1395.74 336.937 1395.67 336.949 1395.59 336.95C1394.95 337.128 1394.29 337.277 1393.61 337.397C1392.33 337.717 1390.95 338.037 1389.67 338.292C1388.68 338.484 1387.79 338.612 1386.81 338.804C1384.73 339.251 1382.56 339.571 1380.39 339.89C1379.81 340.006 1379.21 340.092 1378.61 340.146C1377.53 340.338 1376.44 340.466 1375.36 340.593C1375.3 340.589 1375.25 340.593 1375.2 340.604C1375.15 340.615 1375.1 340.633 1375.06 340.657C1374.72 340.643 1374.38 340.688 1374.07 340.785C1373.84 340.775 1373.6 340.797 1373.38 340.849C1371.7 341.041 1369.93 341.169 1368.15 341.361C1367.16 341.425 1366.08 341.488 1364.99 341.552C1364.84 341.604 1364.67 341.626 1364.5 341.616C1363.41 341.68 1362.43 341.744 1361.44 341.808H1361.24C1360.16 341.872 1359.07 341.872 1357.99 341.936C1356.01 342 1354.04 342 1352.06 342H-212.064C-239.85 341.961 -266.84 335.989 -288.857 325.011C-310.874 314.033 -326.69 298.659 -333.855 281.271H-336.618C-337.213 279.158 -337.608 277.023 -337.802 274.878C-337.901 273.664 -338 272.385 -338 271.171V159.685C-317.285 160.081 -296.742 162.252 -276.907 166.142C-223.217 176.753 -171.007 194.716 -114.948 194.716C-110.507 194.716 -105.868 194.589 -101.328 194.333C-42.3077 191.136 3.58542 167.42 41.7806 140.636C44.8401 138.526 47.8997 136.416 50.7622 134.243C57.9668 129.065 64.8756 123.759 71.5868 118.517C93.0287 100.979 117.06 84.8356 143.339 70.3179C147.583 68.0802 151.827 65.971 156.169 63.9253C181.652 51.6158 211.661 43.8366 243.219 41.3595C247.265 41.104 251.312 40.912 255.359 40.8484C297.601 40.0173 337.276 49.8616 373.399 63.9253C378.629 65.971 383.86 68.0802 388.894 70.3179C406.165 77.9017 422.802 86.0741 438.735 94.8008C463.333 108.796 489.027 121.961 515.717 134.243C517.691 135.138 519.666 136.033 521.639 136.8C524.698 138.142 527.857 139.421 531.015 140.636C558.052 151.892 588.457 159.321 620.236 162.434C621.322 162.562 622.506 162.69 623.69 162.754C675.111 166.653 722.978 156.809 766.7 140.636C772.129 138.59 777.655 136.48 782.985 134.243C817.138 119.541 849.15 102.851 878.621 84.3815C886.319 79.7147 894.117 74.9843 902.209 70.3179C905.862 68.2082 909.513 66.0346 913.264 63.9253C971.888 30.5561 1039.5 0 1119.34 0C1122.7 0 1126.15 0.0640257 1129.6 0.191603C1187.05 1.9817 1237.48 20.0086 1279.82 42.8936C1292.12 49.5036 1303.88 56.5237 1315.05 63.9253C1315.55 64.2449 1315.94 64.5004 1316.43 64.8202C1319.2 66.61 1321.96 68.4636 1324.53 70.3176C1356.11 91.7325 1385.23 114.618 1419.57 134.243C1423.32 136.48 1427.17 138.59 1431.12 140.635C1442.96 147.004 1455.5 152.815 1468.62 158.023C1471.68 159.238 1474.84 160.388 1478 161.475Z" fill="white"/>
</svg>
