<svg width="1816" height="342" viewBox="0 0 1816 342" fill="none" xmlns="http://www.w3.org/2000/svg">
<path d="M1816 161.475V260.432C1816.01 265.279 1815.32 270.116 1813.93 274.879C1813.43 277.052 1812.64 279.162 1811.85 281.271C1810.97 283.445 1809.88 285.618 1808.79 287.728C1808.1 288.878 1807.51 290.029 1806.72 291.116C1806.43 291.691 1806.03 292.202 1805.64 292.778C1804.75 294.184 1803.76 295.527 1802.68 296.869C1802.68 296.933 1802.68 296.997 1802.58 296.997C1801.98 297.764 1801.39 298.531 1800.8 299.234C1799.62 300.641 1798.33 302.047 1797.05 303.389C1795.47 305.051 1793.89 306.586 1792.12 308.12C1791.12 309.078 1790.03 309.996 1788.86 310.869C1787.87 311.7 1786.79 312.531 1785.8 313.362C1784.73 314.217 1783.57 315.028 1782.34 315.791C1781.61 316.376 1780.82 316.931 1779.98 317.453C1778.4 318.476 1776.82 319.499 1775.14 320.458C1774.56 320.853 1773.93 321.216 1773.26 321.544C1772.18 322.183 1770.99 322.823 1769.81 323.462C1769.22 323.781 1768.53 324.165 1767.84 324.485C1767.34 324.74 1766.85 324.996 1766.26 325.316H1766.16C1764.01 326.417 1761.77 327.441 1759.45 328.384C1759.45 328.393 1759.45 328.401 1759.44 328.409C1759.44 328.417 1759.43 328.424 1759.42 328.43C1759.41 328.436 1759.4 328.441 1759.39 328.444C1759.37 328.447 1759.36 328.448 1759.35 328.448C1759.25 328.448 1759.25 328.512 1759.15 328.576C1757.77 329.215 1756.29 329.79 1754.81 330.366C1754.02 330.686 1753.23 330.941 1752.44 331.197C1752.27 331.304 1752.07 331.39 1751.85 331.453C1750.96 331.772 1750.17 332.092 1749.28 332.348C1747.01 333.115 1744.74 333.882 1742.37 334.585C1739.64 335.423 1736.84 336.17 1733.98 336.822C1733.94 336.861 1733.88 336.893 1733.81 336.915C1733.74 336.937 1733.67 336.949 1733.59 336.95C1732.95 337.128 1732.29 337.277 1731.61 337.397C1730.33 337.717 1728.95 338.037 1727.67 338.292C1726.68 338.484 1725.79 338.612 1724.81 338.804C1722.73 339.251 1720.56 339.571 1718.39 339.89C1717.81 340.006 1717.21 340.092 1716.61 340.146C1715.53 340.338 1714.44 340.466 1713.36 340.593C1713.3 340.589 1713.25 340.593 1713.2 340.604C1713.15 340.615 1713.1 340.633 1713.06 340.657C1712.72 340.643 1712.38 340.688 1712.07 340.785C1711.84 340.775 1711.6 340.797 1711.38 340.849C1709.7 341.041 1707.93 341.169 1706.15 341.361C1705.16 341.425 1704.08 341.488 1702.99 341.552C1702.84 341.604 1702.67 341.626 1702.5 341.616C1701.41 341.68 1700.43 341.744 1699.44 341.808H1699.24C1698.16 341.872 1697.07 341.872 1695.99 341.936C1694.01 342 1692.04 342 1690.06 342H125.936C98.1502 341.961 71.1597 335.989 49.1427 325.011C27.1257 314.033 11.3103 298.659 4.14529 281.271H1.38198C0.786983 279.158 0.391519 277.023 0.197711 274.878C0.0989274 273.664 0 272.385 0 271.171V159.685C20.7149 160.081 41.2578 162.252 61.0925 166.142C114.783 176.753 166.993 194.716 223.052 194.716C227.493 194.716 232.132 194.589 236.672 194.333C295.692 191.136 341.585 167.42 379.781 140.636C382.84 138.526 385.9 136.416 388.762 134.243C395.967 129.065 402.876 123.759 409.587 118.517C431.029 100.979 455.06 84.8356 481.339 70.3179C485.583 68.0802 489.827 65.971 494.169 63.9253C519.652 51.6158 549.661 43.8366 581.219 41.3595C585.265 41.104 589.312 40.912 593.359 40.8484C635.601 40.0173 675.276 49.8616 711.399 63.9253C716.629 65.971 721.86 68.0802 726.894 70.3179C744.165 77.9017 760.802 86.0741 776.735 94.8008C801.333 108.796 827.027 121.961 853.717 134.243C855.691 135.138 857.666 136.033 859.639 136.8C862.698 138.142 865.857 139.421 869.015 140.636C896.052 151.892 926.457 159.321 958.236 162.434C959.322 162.562 960.506 162.69 961.69 162.754C1013.11 166.653 1060.98 156.809 1104.7 140.636C1110.13 138.59 1115.66 136.48 1120.99 134.243C1155.14 119.541 1187.15 102.851 1216.62 84.3815C1224.32 79.7147 1232.12 74.9843 1240.21 70.3179C1243.86 68.2082 1247.51 66.0346 1251.26 63.9253C1309.89 30.5561 1377.5 0 1457.34 0C1460.7 0 1464.15 0.0640257 1467.6 0.191603C1525.05 1.9817 1575.48 20.0086 1617.82 42.8936C1630.12 49.5036 1641.88 56.5237 1653.05 63.9253C1653.55 64.2449 1653.94 64.5004 1654.43 64.8202C1657.2 66.61 1659.96 68.4636 1662.53 70.3176C1694.11 91.7325 1723.23 114.618 1757.57 134.243C1761.32 136.48 1765.17 138.59 1769.12 140.635C1780.96 147.004 1793.5 152.815 1806.62 158.023C1809.68 159.238 1812.84 160.388 1816 161.475Z" fill="white"/>
</svg>
