<svg width="12" height="13" viewBox="0 0 12 13" fill="none" xmlns="http://www.w3.org/2000/svg">
<path d="M7.58414 5.13625V2.87031C7.58414 2.50973 7.4409 2.16392 7.18594 1.90895C6.93097 1.65398 6.58516 1.51074 6.22458 1.51074H2.59907C2.23849 1.51074 1.89268 1.65398 1.63771 1.90895C1.38274 2.16392 1.2395 2.50973 1.2395 2.87031V11.0277C1.2395 11.3883 1.38274 11.7341 1.63771 11.9891C1.89268 12.244 2.23849 12.3873 2.59907 12.3873H6.22458C6.58516 12.3873 6.93097 12.244 7.18594 11.9891C7.4409 11.7341 7.58414 11.3883 7.58414 11.0277V8.76176M9.3969 8.76176L11.2097 6.94901M11.2097 6.94901L9.3969 5.13625M11.2097 6.94901H3.50545" stroke="#066032" stroke-width="1.2085" stroke-linecap="round" stroke-linejoin="round"/>
</svg>
