<svg width="8" height="8" viewBox="0 0 8 8" fill="none" xmlns="http://www.w3.org/2000/svg">
<path d="M4.8192 2.90776V1.54245C4.8192 1.32519 4.73289 1.11683 4.57927 0.9632C4.42564 0.809573 4.21728 0.723267 4.00001 0.723267H1.81552C1.59826 0.723267 1.3899 0.809573 1.23627 0.9632C1.08264 1.11683 0.996338 1.32519 0.996338 1.54245V6.45756C0.996338 6.67482 1.08264 6.88318 1.23627 7.03681C1.3899 7.19044 1.59826 7.27674 1.81552 7.27674H4.00001C4.21728 7.27674 4.42564 7.19044 4.57927 7.03681C4.73289 6.88318 4.8192 6.67482 4.8192 6.45756V5.09225M5.91145 5.09225L7.00369 4M7.00369 4L5.91145 2.90776M7.00369 4H2.36165" stroke="white" stroke-width="0.728164" stroke-linecap="round" stroke-linejoin="round"/>
</svg>
